Coordinates
version=1
nRows=14
nColumns=36
inDegrees=yes

Units are S.I. units (second, meters, Newtons, ...)
If the header above contains a line with 'inDegrees', this indicates whether rotational values are in degrees (yes) or radians (no).

endheader
time	pelvis_tilt	pelvis_list	pelvis_rotation	pelvis_tx	pelvis_ty	pelvis_tz	hip_flexion_r	hip_adduction_r	hip_rotation_r	knee_angle_r	knee_angle_r_beta	ankle_angle_r	subtalar_angle_r	mtp_angle_r	hip_flexion_l	hip_adduction_l	hip_rotation_l	knee_angle_l	knee_angle_l_beta	ankle_angle_l	subtalar_angle_l	mtp_angle_l	lumbar_extension	lumbar_bending	lumbar_rotation	arm_flex_r	arm_add_r	arm_rot_r	elbow_flex_r	pro_sup_r	arm_flex_l	arm_add_l	arm_rot_l	elbow_flex_l	pro_sup_l
      1.96666670	     -1.17166432	      0.70734421	     -0.84368612	     -0.93460910	      1.24661971	     -0.05493463	     -5.95890372	     -1.35455945	     -4.12533130	      0.26162418	      0.00456620	      5.20415688	     -6.22359299	     -7.49999987	     -6.54549690	     -2.27438725	     -8.03268092	      0.28615330	      0.00499432	      8.60419837	      9.80558257	     -7.49999987	     -4.59746742	      1.23208896	      2.61753374	     10.54864437	     -8.86456448	     42.44706060	     27.48796083	     61.28005183	      7.58442606	     -9.85593905	     36.71587882	     34.22967906	     61.00579748
      1.97083330	     -1.16943525	      0.70203692	     -0.76816195	     -0.93324306	      1.24758600	     -0.05461284	     -5.96718496	     -1.36046085	     -4.01771267	      0.25741000	      0.00449265	      5.13165066	     -6.44144811	     -7.49999987	     -6.53609838	     -2.27248317	     -8.00572927	      0.28649173	      0.00500022	      8.71106734	     10.03144575	     -7.49999987	     -4.58974688	      1.26787664	      2.51573108	     10.54373497	     -8.91792300	     42.58879318	     27.56163250	     61.40178142	      7.58756150	     -9.86742949	     36.89866872	     34.17364091	     61.06843910
      1.97500000	     -1.12850337	      0.68962056	     -0.73438589	     -0.93240461	      1.24679685	     -0.05410004	     -6.03879582	     -1.35991406	     -3.90961650	      0.25273576	      0.00441107	      5.17756001	     -6.49320293	     -7.49999987	     -6.59816302	     -2.28445115	     -7.85087441	      0.28688563	      0.00500710	      8.77269123	      9.93153728	     -7.49999987	     -4.59743946	      1.27636263	      2.47730259	     10.46117287	     -8.92143591	     42.49123861	     27.64578100	     61.37236633	      7.55514026	     -9.87270465	     36.79693337	     34.20915472	     61.02001796
      1.97916670	     -1.27118496	      0.67036547	     -0.75109264	     -0.93319905	      1.24530466	     -0.05372359	     -5.88349243	     -1.33918997	     -3.95827237	      0.25284305	      0.00441294	      5.29046540	     -6.29951937	     -7.49999987	     -6.44799370	     -2.30536659	     -7.92204744	      0.29048213	      0.00506987	      8.94564154	     10.15467937	     -7.49999987	     -4.31239819	      1.29953402	      2.51035321	     10.36885551	     -8.80423137	     42.19630327	     27.35975689	     61.18016861	      7.45148179	     -9.74098656	     36.44337473	     33.90526326	     60.83855239
      1.98333330	     -1.21463979	      0.65772787	     -0.72805930	     -0.93455015	      1.24447294	     -0.05322676	     -5.92805739	     -1.31214075	     -3.80891820	      0.24776312	      0.00432428	      5.16746302	     -6.72099666	     -7.49999987	     -6.50331485	     -2.32042234	     -7.77991763	      0.29165764	      0.00509039	      9.07401797	     10.16260924	     -7.49999987	     -4.40209123	      1.28591126	      2.51509682	     10.37510737	     -8.87029292	     42.23490579	     27.64335860	     61.20837099	      7.53101853	     -9.81904494	     36.51679723	     34.08840146	     60.86063432
      1.98750000	     -1.21688867	      0.65079962	     -0.74602829	     -0.93514877	      1.24423527	     -0.05431838	     -5.87914579	     -1.30502501	     -3.82684818	      0.24617323	      0.00429653	      5.12231836	     -6.87648834	     -7.49999987	     -6.47528110	     -2.30261903	     -7.45016928	      0.28832669	      0.00503225	      9.01371116	      9.64195266	     -7.49999987	     -4.45877714	      1.28137327	      2.52559191	     10.41303933	     -8.93747570	     42.20074733	     27.85464843	     61.16178547	      7.54343006	     -9.87393248	     36.48733881	     34.28766140	     60.82116174
      1.99166670	     -1.22179646	      0.63350048	     -0.74829447	     -0.93508809	      1.24379060	     -0.05372394	     -5.83255044	     -1.27644529	     -3.77319680	      0.24700083	      0.00431098	      5.20208686	     -6.96891387	     -7.49999987	     -6.45721733	     -2.32158642	     -7.48872045	      0.29100628	      0.00507902	      9.30407380	      9.99418126	     -7.49999987	     -4.47158005	      1.28371073	      2.56176057	     10.48647215	     -8.97696547	     42.52446143	     27.85502118	     61.30750876	      7.62485305	     -9.93989214	     36.72546708	     34.37049123	     60.91409194
      1.99583330	     -1.23200840	      0.61587775	     -0.80265637	     -0.93378478	      1.24663464	     -0.05219293	     -5.80436919	     -1.22548311	     -3.70740740	      0.24933166	      0.00435166	      5.08584058	     -7.17706784	     -7.49999987	     -6.46947121	     -2.35303967	     -7.51883825	      0.29131833	      0.00508446	      9.40123258	     10.22589490	     -7.49999987	     -4.45028121	      1.28395825	      2.63311013	     10.53590934	     -8.97787140	     42.89597520	     27.78670336	     61.50596263	      7.65567076	    -10.01021527	     37.00609984	     34.33730243	     61.04121692
      2.00000000	     -1.25172690	      0.58885489	     -0.82538373	     -0.93477284	      1.24730027	     -0.05182128	     -5.78115295	     -1.17770084	     -3.90186716	      0.25204143	      0.00439895	      5.20469526	     -6.88293936	     -7.49999987	     -6.46398850	     -2.39166226	     -7.36653909	      0.29039244	      0.00506830	      9.38001821	     10.17605533	     -7.49999987	     -4.45049672	      1.30125761	      2.68894446	     10.48980090	     -8.96038031	     42.75729357	     27.83311387	     61.42198615	      7.61756253	     -9.97075122	     36.78687973	     34.31938029	     60.97079649
      2.00416670	     -1.19638405	      0.57942996	     -0.84473424	     -0.93391768	      1.24934285	     -0.05136263	     -5.82931643	     -1.13113355	     -3.87055655	      0.25023293	      0.00436739	      5.07243632	     -7.10390220	     -7.49999987	     -6.54607463	     -2.42959043	     -7.06243420	      0.28754767	      0.00501865	      9.22676366	      9.89381898	     -7.49999987	     -4.55115575	      1.28050890	      2.75136923	     10.46816734	     -8.94579943	     42.59120901	     27.95640235	     61.29533223	      7.52422879	     -9.96572926	     36.48009566	     34.47755771	     60.85609083
      2.00833330	     -1.25994019	      0.56227864	     -0.95264439	     -0.93433117	      1.24801365	     -0.05118050	     -5.75767901	     -1.08579431	     -3.96167424	      0.25165857	      0.00439227	      5.11037231	     -6.92083635	     -7.49999987	     -6.51588861	     -2.46760282	     -7.33103643	      0.28941655	      0.00505127	      9.30338449	     10.36688248	     -7.49999987	     -4.44845701	      1.28571112	      2.86879068	     10.39623733	     -8.89203107	     42.48923331	     27.87040779	     61.18778188	      7.42127244	     -9.91847515	     36.20962608	     34.43684387	     60.77654105
      2.01250000	     -1.25664110	      0.55430417	     -1.09653194	     -0.93378452	      1.24923129	     -0.05093637	     -5.76163664	     -1.05009107	     -3.98213406	      0.25298490	      0.00441542	      5.08120107	     -6.90729110	     -7.49999987	     -6.56086608	     -2.49316408	     -7.58798783	      0.29012078	      0.00506356	      9.32493436	     10.72730792	     -7.49999987	     -4.43906148	      1.27693757	      2.97222686	     10.41137731	     -8.83802323	     42.51396392	     27.73470514	     61.21301608	      7.34064599	     -9.89803146	     36.08530737	     34.44297113	     60.78393105
      2.01666670	     -1.23759045	      0.55001866	     -1.21725509	     -0.93259298	      1.25135302	     -0.05023459	     -5.76976074	     -1.02293918	     -3.90954686	      0.24895896	      0.00434515	      4.86196857	     -7.15397403	     -7.49999987	     -6.63201523	     -2.52515562	     -7.56998544	      0.29166628	      0.00509054	      9.11605164	     10.54816578	     -7.49999987	     -4.45897449	      1.27031148	      3.06118352	     10.46365806	     -8.84043183	     42.88319693	     27.65913491	     61.44356174	      7.29216179	     -9.90755954	     36.09592034	     34.41416975	     60.96557519
      2.02083330	     -1.19501669	      0.55149327	     -1.24246809	     -0.93344400	      1.25015553	     -0.05087887	     -5.82288941	     -1.00759699	     -4.24691237	      0.24768727	      0.00432296	      5.00368388	     -6.71558687	     -7.49999987	     -6.68337348	     -2.53753141	     -7.28278225	      0.29263376	      0.00510742	      8.95369484	     10.14622728	     -7.49999987	     -4.53128555	      1.26427166	      2.99294820	     10.45406942	     -8.75180270	     42.43917320	     27.64395943	     61.20153675	      7.21295393	     -9.82619829	     35.55527002	     34.32500565	     60.79921500
